# xmcd
#
# Track frame offsets:
#	150
#	16657
#	33792
#	52717
#	70599
#	84847
#	99068
#	115634
#	135093
#	152287
#	169339
#	183111
#	199842
#	216703
#	230580
#	247686
#	263682
#	280172
#	295988
#	312858
#
# Disc length: 4348 seconds
#
# Revision: 1
# Processed by: cddbd v1.5.1PL0 Copyright (c) Steve Scherf et al.
# Submitted via: audiograbber 1.83.01
#
DISCID=ef10fa14
DTITLE=Various Artist - RC38
DYEAR=1996
DGENRE=Country
TTITLE0=Billy Dean - That Girl's Been Spying On Me
TTITLE1=Ty Herndon - Living In A Moment
TTITLE2=Vince Gill - Worlds Apart
TTITLE3=Patty Loveless - Lonely Too Long
TTITLE4=Sammy Kershaw - Vidalia
TTITLE5=Mark Wills - Jacob's Ladder
TTITLE6=Tracy Lawrence - Stars Over Texas
TTITLE7=George Strait - I Can Still Make Cheyenne
TTITLE8=Collin Raye - Love Remains
TTITLE9=Trisha Yearwood - Belive Me Baby (I Lied)
TTITLE10=Joe Diffie - Whole Lotta Gone
TTITLE11=David Lee Murphy - The Road You Leave Behind
TTITLE12=Paul Brandt - I Do
TTITLE13=Alabama - The Maker Said Take Her
TTITLE14=Faith Hill - You Can't Lose Me
TTITLE15=Toby Keith - A Woman's Touch
TTITLE16=Clint Black - Like The Rain
TTITLE17=Travis Tritt - More Than You'll Ever Know
TTITLE18=Kenny Chesney - Me And You
TTITLE19=Jo Dee Messina - You're Not In Kansas Anymore
EXTD=
EXTT0=
EXTT1=
EXTT2=
EXTT3=
EXTT4=
EXTT5=
EXTT6=
EXTT7=
EXTT8=
EXTT9=
EXTT10=
EXTT11=
EXTT12=
EXTT13=
EXTT14=
EXTT15=
EXTT16=
EXTT17=
EXTT18=
EXTT19=
PLAYORDER=
